# xmcd
#
# Track frame offsets:
#	150
#	18208
#	38404
#	55432
#	68748
#	87064
#	105910
#	117325
#	131208
#	148417
#	166583
#	178537
#	196854
#	215603
#
# Disc length: 3075 seconds
#
# Revision: 0
# Processed by: cddbd v1.5.2PL0 Copyright (c) Steve Scherf et al.
# Submitted via: dBpowerAMP V4.0
#
DISCID=ba0c010e
DTITLE=Steve Romig and Mike Kelly - The Friday Sessions
DYEAR=2005
DGENRE=Blues
TTITLE0=Way Down Homeless Blues
TTITLE1=Turn Up Your Radio
TTITLE2=Lonely
TTITLE3=Mama's Little Babies
TTITLE4=The Mistress
TTITLE5=Everybody's Got Their Way
TTITLE6=Key To The Highway
TTITLE7=Body On My Mind
TTITLE8=Silent Wonder
TTITLE9=She's Alright
TTITLE10=Leavin' Here Today
TTITLE11=Backdoor Man
TTITLE12=My Soul's Beloved
TTITLE13=Sleep
EXTD=
EXTT0=
EXTT1=
EXTT2=
EXTT3=
EXTT4=
EXTT5=
EXTT6=
EXTT7=
EXTT8=
EXTT9=
EXTT10=
EXTT11=
EXTT12=
EXTT13=
PLAYORDER=
